Coordinates
version=1
nRows=19
nColumns=36
inDegrees=yes

Units are S.I. units (second, meters, Newtons, ...)
If the header above contains a line with 'inDegrees', this indicates whether rotational values are in degrees (yes) or radians (no).

endheader
time	pelvis_tilt	pelvis_list	pelvis_rotation	pelvis_tx	pelvis_ty	pelvis_tz	hip_flexion_r	hip_adduction_r	hip_rotation_r	knee_angle_r	knee_angle_r_beta	ankle_angle_r	subtalar_angle_r	mtp_angle_r	hip_flexion_l	hip_adduction_l	hip_rotation_l	knee_angle_l	knee_angle_l_beta	ankle_angle_l	subtalar_angle_l	mtp_angle_l	lumbar_extension	lumbar_bending	lumbar_rotation	arm_flex_r	arm_add_r	arm_rot_r	elbow_flex_r	pro_sup_r	arm_flex_l	arm_add_l	arm_rot_l	elbow_flex_l	pro_sup_l
      0.00000000	      3.16622223	     -1.14050616	      3.38577124	     -0.91224584	      1.31067687	     -0.09913678	     -3.88957752	     -0.89464710	     -9.18740986	      6.51415128	      0.11369339	      3.00912102	    -11.05826382	     -5.31314599	     -4.92657294	     -4.15572218	      0.01395050	      5.03145580	      0.08781547	      6.57898217	      1.52180852	     -5.31314599	    -23.15828451	      0.19650047	      1.62063210	      7.32021546	     -7.33315201	     14.17803104	     22.68167669	     75.33823847	      1.44437859	     -9.22083989	     12.76109004	     21.57549011	     65.51376469
      0.00416670	      3.13250825	     -1.15651188	      3.97953329	     -0.91352362	      1.31210497	     -0.10000706	     -3.98435594	     -0.38629698	     -8.87868108	      6.68337129	      0.11664683	      4.28312252	     -9.22316137	     -6.40914440	     -4.56699283	     -3.61126336	      2.37938215	      4.94022383	      0.08622317	      7.30638680	      1.96448788	     -6.40914440	    -23.45275357	      0.13767503	      1.68586694	      7.48035260	     -5.84139811	      7.14042223	     21.19980610	     78.80018268	      2.15574283	     -7.97309436	      5.18695407	     20.06185602	     69.92944826
      0.00833330	      3.14117052	     -0.94324287	      3.94561502	     -0.91416699	      1.31574616	     -0.09900605	     -4.29952322	     -0.34440011	     -9.37045322	      5.85581538	      0.10220326	      4.15819298	     -9.05477743	     -7.03375773	     -4.73379289	     -3.50566141	      2.96203238	      4.69571757	      0.08195573	      7.03520558	      1.39764798	     -7.03375773	    -23.88265917	     -0.44712061	      1.95333483	      7.31588829	     -5.00080712	      5.78592538	     21.25065828	     71.94713694	      2.76963958	     -8.25366042	      5.04275670	     20.30216423	     66.88707563
      0.01250000	      4.22029672	     -0.83506408	      4.19428787	     -0.91544084	      1.31888418	     -0.09880272	     -5.67971893	     -0.28782822	     -9.45222900	      5.29302999	      0.09238080	      4.06357434	     -8.80900084	     -7.07608704	     -6.20189901	     -3.52708104	      3.53086881	      4.03939342	      0.07050071	      6.61873944	      0.43975042	     -7.07608704	    -25.52788709	     -0.55813816	      1.81153471	      7.55407930	     -4.92576019	      5.68773933	     21.30868606	     71.37615338	      3.44887543	     -8.58115616	      5.40665415	     20.42282792	     66.85244513
      0.01666670	      4.67874856	     -0.69718136	      4.46567616	     -0.91577400	      1.31571339	     -0.09836638	     -6.29451237	     -0.32793403	     -9.41540859	      5.10324958	      0.08906851	      4.47206892	     -8.23320778	     -7.11325020	     -6.79291532	     -3.43218668	      4.38611589	      3.86246397	      0.06741271	      6.18694591	     -1.00722699	     -7.11325020	    -26.33723103	     -0.61338465	      1.85088607	      7.50808910	     -4.99468828	      5.42471198	     21.51202993	     71.84952768	      4.23468674	     -9.04238252	      8.24524852	     20.34681478	     68.73700749
      0.02083330	      5.26701399	     -0.64470155	      4.60399934	     -0.91514262	      1.31669769	     -0.09963129	     -7.03259088	     -0.31179887	     -9.36514833	      4.89507767	      0.08543522	      4.33697238	     -8.47631244	     -7.25516144	     -7.53799109	     -3.43114059	      4.58245175	      3.63259081	      0.06340067	      6.09653767	     -1.70441593	     -7.25516144	    -27.15809612	     -0.47610940	      2.02561095	      7.46732472	     -5.07568680	      3.75077070	     21.87555726	     75.15737842	      4.80214892	     -8.97849926	      9.11965419	     20.40529392	     72.02327853
      0.02500000	      5.65166066	     -0.54219154	      4.80432838	     -0.91525224	      1.31308800	     -0.10085581	     -7.46307588	     -0.40747323	     -8.99214113	      4.98880225	      0.08707103	      4.15967027	     -9.18144077	     -7.24710981	     -7.88519503	     -3.23794981	      5.36166650	      3.70896871	      0.06473372	      6.17366681	     -2.49040414	     -7.24710981	    -27.72133668	     -0.32300615	      1.89883444	      7.63173571	     -5.19765855	      3.56253605	     22.00839642	     74.15334363	      5.05972772	     -8.76235846	      9.06470000	     20.75160124	     71.19651144
      0.02916670	      6.03948676	     -0.41056720	      4.86248992	     -0.91407536	      1.31288387	     -0.10131065	     -7.95511475	     -0.55432232	     -8.74188272	      5.05217968	      0.08817717	      4.16705120	     -9.47380456	     -7.27636275	     -8.37976964	     -3.07202848	      5.59022685	      3.74637426	      0.06538657	      6.19884827	     -2.86200202	     -7.27636275	    -28.17508548	     -0.29192167	      1.89350434	      7.63782239	     -5.33540659	      3.70469534	     22.35204973	     73.04284714	      5.21388167	     -8.58746859	      9.48572664	     21.26837663	     70.32140118
      0.03333330	      6.24157318	     -0.30706342	      5.01868883	     -0.91339277	      1.31754852	     -0.10315923	     -8.36959248	     -0.72001051	     -9.13735038	      4.92482598	      0.08595443	      4.20429850	     -9.11184708	     -7.28335038	     -8.59418001	     -2.88174845	      6.52713856	      3.68622015	      0.06433668	      5.80978083	     -3.85679543	     -7.28335038	    -28.30689516	     -0.15980575	      1.72077177	      7.79565438	     -5.50360669	      4.21046857	     22.37402095	     73.66208891	      5.43219712	     -8.45308523	     10.63768984	     21.25954426	     70.94113581
      0.03750000	      6.30373259	     -0.23673779	      5.08745189	     -0.91176948	      1.31924050	     -0.10226941	     -8.66079922	     -0.77369113	     -9.17478924	      4.68292197	      0.08173241	      3.95026843	     -9.18255751	     -7.32623309	     -8.72358819	     -2.78429423	      6.98471770	      3.54076373	      0.06179799	      5.62596364	     -4.07138329	     -7.32623309	    -28.21451948	     -0.11797345	      1.73957461	      7.84072769	     -5.58422026	      4.77331732	     22.29729377	     73.84406257	      5.69797065	     -8.39746443	     12.24271283	     21.12618771	     71.12954495
      0.04166670	      6.47835761	     -0.16619519	      5.19949836	     -0.91145402	      1.31755010	     -0.10275004	     -9.09397822	     -0.82001424	     -9.07040283	      4.47389955	      0.07808428	      3.72812540	     -9.29827009	     -7.39580571	     -8.95268146	     -2.73952540	      7.18399376	      3.52740257	      0.06156479	      5.55080702	     -4.10759183	     -7.39580571	    -28.33546160	     -0.05526315	      1.72672667	      7.66607353	     -5.45751687	      3.07631632	     22.74139765	     78.04609718	      5.88911600	     -8.27623828	     12.28891376	     21.39880088	     73.66066890
      0.04583330	      6.63177121	     -0.18211362	      5.17350596	     -0.91318822	      1.31426996	     -0.10328366	     -9.31425843	     -0.77315580	     -8.94653899	      4.32763797	      0.07553153	      3.54107440	     -9.59502554	     -7.41243301	     -9.14340581	     -2.73511702	      7.48049662	      3.43040384	      0.05987184	      5.65693569	     -4.19191169	     -7.41243301	    -28.50330965	      0.03790726	      1.70045845	      7.71128196	     -5.54417495	      3.43633725	     23.04116549	     77.03931170	      6.02797891	     -8.17730879	     12.60029522	     21.89534922	     73.05193346
      0.05000000	      6.68148144	     -0.16423502	      5.19272075	     -0.91261108	      1.31780725	     -0.10484634	     -9.46782458	     -0.79980283	     -8.95254767	      4.12780104	      0.07204372	      3.31990084	     -9.73334584	     -7.43617487	     -9.22945074	     -2.67890997	      7.79542106	      3.29692082	      0.05754212	      5.45446770	     -4.49394489	     -7.43617487	    -28.49076484	      0.13329327	      1.60301260	      7.78723036	     -5.61140741	      3.91344432	     23.21015156	     75.71580065	      6.27199773	     -8.02809966	     13.27933921	     22.07457107	     72.26431540
      0.05416670	      6.82532807	     -0.15840446	      5.22299258	     -0.91000565	      1.31939468	     -0.10606220	     -9.80241574	     -0.79581424	     -9.21957073	      3.82775913	      0.06680700	      2.94257809	     -9.78977287	     -7.43958890	     -9.52995563	     -2.65314552	      7.92213099	      3.06286381	      0.05345706	      5.39819688	     -4.38568443	     -7.43958890	    -28.55847250	      0.26064228	      1.46283892	      7.86250986	     -5.63536185	      3.88994576	     23.43981076	     75.32716304	      6.36948212	     -7.86548285	     13.36621166	     22.35230436	     72.01354623
      0.05833330	      6.92736361	     -0.15059042	      5.20200909	     -0.91214668	      1.31509462	     -0.10460288	     -9.96665038	     -0.78663738	     -9.25821567	      3.64850784	      0.06367847	      2.80201541	    -10.02277026	     -7.44688466	     -9.71422871	     -2.63249696	      8.15890228	      2.91072440	      0.05080172	      5.32898060	     -4.66698442	     -7.44688466	    -28.67501523	      0.31848424	      1.44714161	      7.97763581	     -5.70079616	      4.08140226	     23.70235372	     75.51067681	      6.62549448	     -7.84740505	     14.10205240	     22.70002585	     72.61161431
      0.06250000	      6.88648541	     -0.12373193	      5.20702754	     -0.90883014	      1.32056294	     -0.10455048	    -10.08818115	     -0.79574241	     -9.40327487	      3.39083740	      0.05918128	      2.62292265	     -9.99533535	     -7.44717916	     -9.86451369	     -2.63680197	      8.23808253	      2.70443113	      0.04720123	      5.19936258	     -4.58634224	     -7.44717916	    -28.44256512	      0.31963180	      1.36003220	      7.97526318	     -5.59424310	      4.10655740	     23.75220467	     75.60562967	      6.76022357	     -7.70451748	     14.15441144	     22.80059277	     72.71833649
      0.06666670	      7.02621659	     -0.15975711	      5.13300327	     -0.91222371	      1.31319147	     -0.10583063	    -10.25709292	     -0.75833195	     -9.26553558	      3.24525066	      0.05664031	      2.27483694	    -10.69121332	     -7.45229273	    -10.02332191	     -2.63463622	      8.04291591	      2.71075204	      0.04731155	      5.69096399	     -4.28370849	     -7.45229273	    -28.64023754	      0.45513878	      1.31072213	      8.11086015	     -5.64349803	      4.03634736	     24.18178352	     75.46878527	      6.96217980	     -7.56918075	     14.24224764	     23.24488970	     72.78867709
      0.07083330	      7.17820460	     -0.17962846	      5.11828791	     -0.91175336	      1.31543757	     -0.10712801	    -10.38001025	     -0.76075277	     -9.50965362	      3.23824486	      0.05651803	      2.18141275	    -10.66663847	     -7.45358284	    -10.25717746	     -2.60776829	      8.32238521	      2.57043020	      0.04486247	      5.60324002	     -4.70493128	     -7.45358284	    -28.84210837	      0.55385954	      1.26148735	      8.35114149	     -5.65946544	      4.09667442	     24.27644059	     75.49189572	      7.27744284	     -7.39464511	     14.36109937	     23.49333780	     72.89665813
      0.07500000	      7.06706656	     -0.19310323	      5.11051879	     -0.91025283	      1.31717285	     -0.10548066	    -10.22023342	     -0.75690894	     -9.80142055	      3.23008163	      0.05637556	      2.28599888	    -10.45490453	     -7.45965969	    -10.23812588	     -2.60963641	      8.64384385	      2.48619127	      0.04339222	      5.38526558	     -5.31277476	     -7.45965969	    -28.64116656	      0.58101887	      1.22946213	      8.43765566	     -5.65721943	      4.47504331	     24.30980319	     77.21368503	      7.48818040	     -7.44440972	     15.09214008	     23.70485274	     75.03296672
